<svg xmlns="http://www.w3.org/2000/svg" width="70" height="24" fill="none"><path fill="#FEFDFD" d="M66.647 23.999H53.64a3.35 3.35 0 0 1-3.353-3.383V4.402A3.35 3.35 0 0 1 53.64 1.02h13.007a3.35 3.35 0 0 1 3.352 3.382v16.214A3.35 3.35 0 0 1 66.647 24m-.636-4.141V5.16a.52.52 0 0 0-.52-.524H54.796a.52.52 0 0 0-.52.524v14.698a.52.52 0 0 0 .52.525H65.49a.52.52 0 0 0 .52-.525M41 23.999H26.027V1.019H41c2.688 0 4.74 2.071 4.74 4.783v13.414C45.74 21.928 43.689 24 41 24m.751-4.724V5.744c0-.613-.491-1.108-1.098-1.108H30.016v15.747h10.637c.607 0 1.098-.496 1.098-1.108M12.7 24H8.77V7.903h3.93zm0-19.45H8.77V0h3.93zM3.93 24H0V7.903h3.93zm0-19.45H0V0h3.93z"/></svg>