<svg xmlns="http://www.w3.org/2000/svg" width="24" height="24" fill="none"><path fill="#222" d="M5.143 19.714h3.429V14q0-.486.329-.814t.814-.329h4.571q.486 0 .815.33.33.329.328.813v5.714h3.428V9.43L12 4.286 5.143 9.429zm-2.286 0V9.43q0-.543.244-1.029t.67-.8l6.858-5.143Q11.229 2 12 2q.772 0 1.372.457L20.229 7.6q.429.315.672.8t.242 1.029v10.285q0 .943-.672 1.615a2.2 2.2 0 0 1-1.614.671h-4.571q-.486 0-.814-.33a1.11 1.11 0 0 1-.329-.813v-5.714h-2.286v5.714q0 .486-.329.815-.33.33-.813.328H5.143a2.2 2.2 0 0 1-1.614-.67 2.2 2.2 0 0 1-.672-1.616"/></svg>