<svg width="70" height="24" viewBox="0 0 70 24" fill="none" xmlns="http://www.w3.org/2000/svg">
<path d="M66.6466 23.9999H53.6399C51.819 23.9999 50.2871 22.5418 50.2871 20.6171V4.40325C50.2871 2.47859 51.819 1.02051 53.6399 1.02051H66.6466C68.4675 1.02051 69.9994 2.47859 69.9994 4.40325V20.6171C69.9994 22.5418 68.4675 23.9999 66.6466 23.9999ZM66.0107 19.8589V5.16146C66.0107 4.86984 65.7795 4.63655 65.4905 4.63655H54.7961C54.5071 4.63655 54.2758 4.86984 54.2758 5.16146V19.8589C54.2758 20.1505 54.5071 20.3838 54.7961 20.3838H65.4905C65.7795 20.3838 66.0107 20.1505 66.0107 19.8589Z" fill="#FEFDFD"/>
<path d="M40.9995 23.9999H26.0273V1.02051H40.9995C43.6875 1.02051 45.7397 3.09098 45.7397 5.80301V19.2173C45.7397 21.9294 43.6875 23.9999 40.9995 23.9999ZM41.751 19.2757V5.74469C41.751 5.13229 41.2596 4.63655 40.6526 4.63655H30.0161V20.3838H40.6526C41.2596 20.3838 41.751 19.8881 41.751 19.2757Z" fill="#FEFDFD"/>
<path d="M12.7004 24H8.76953V7.9028H12.7004V24ZM12.7004 4.54921H8.76953V0H12.7004V4.54921Z" fill="#FEFDFD"/>
<path d="M3.93091 24H0V7.9028H3.93091V24ZM3.93091 4.54921H0V0H3.93091V4.54921Z" fill="#FEFDFD"/>
</svg>
