<svg xmlns="http://www.w3.org/2000/svg" width="22" height="17" fill="none"><path fill="#BA4A21" d="M16.214 8.664c-3.297.853-4.978-1.838-4.978-4.07C11.236 2.364 13.253 0 16.28 0 19.981 0 22 2.888 22 6.301c0 4.726-2.758 8.861-8.612 10.699l-1.547-2.1c3.297-1.248 5.113-3.282 5.113-5.842 0-.328-.336-.525-.74-.394m-11.235 0C1.749 9.517 0 6.826 0 4.594 0 2.364 2.018 0 4.979 0c3.767 0 5.718 2.888 5.718 6.301 0 4.726-2.69 8.861-8.544 10.699L.606 14.9c3.296-1.248 5.045-3.282 5.045-5.842 0-.328-.336-.46-.672-.394"/></svg>