<svg width="22" height="17" viewBox="0 0 22 17" fill="none" xmlns="http://www.w3.org/2000/svg">
<path d="M16.2141 8.66409C12.9174 9.51737 11.2355 6.82625 11.2355 4.59459C11.2355 2.36293 13.2538 0 16.2813 0C19.9817 0 22 2.88803 22 6.30116C22 11.027 19.2416 15.1622 13.3884 17L11.841 14.8996C15.1376 13.6525 16.9541 11.6178 16.9541 9.05792C16.9541 8.72973 16.6177 8.53282 16.2141 8.66409ZM4.97859 8.66409C1.74924 9.51737 0 6.82625 0 4.59459C0 2.36293 2.01835 0 4.97859 0C8.74618 0 10.6972 2.88803 10.6972 6.30116C10.6972 11.027 8.00612 15.1622 2.15291 17L0.605505 14.8996C3.90214 13.6525 5.65138 11.6178 5.65138 9.05792C5.65138 8.72973 5.31498 8.59845 4.97859 8.66409Z" fill="#BA4A21"/>
</svg>
