<svg xmlns="http://www.w3.org/2000/svg" width="22" height="17" fill="none"><path fill="#BA4A21" d="M5.719 8.336c3.296-.853 4.978 1.838 4.978 4.07 0 2.231-1.95 4.594-5.046 4.594C2.018 17 0 14.112 0 10.699 0 5.973 2.691 1.838 8.544 0l1.548 2.1c-3.23 1.247-5.046 3.282-5.046 5.842 0 .394.404.46.673.394m11.235-.066C20.251 7.417 22 10.174 22 12.405 22 14.637 19.982 17 16.887 17c-3.633 0-5.651-2.888-5.651-6.301 0-4.726 2.758-8.861 8.544-10.699l1.614 2.1c-3.296 1.247-5.113 3.282-5.113 5.842 0 .328.404.394.673.328"/></svg>