<svg width="26" height="26" viewBox="0 0 26 26" fill="none" xmlns="http://www.w3.org/2000/svg">
<path d="M14.2129 18.4392L9.66399 15.9584C9.0701 16.5933 8.29897 17.0349 7.45082 17.2257C6.60266 17.4166 5.7167 17.348 4.90807 17.0287C4.09944 16.7095 3.40553 16.1544 2.91652 15.4356C2.42751 14.7168 2.16602 13.8675 2.16602 12.9982C2.16602 12.1288 2.42751 11.2795 2.91652 10.5607C3.40553 9.84192 4.09944 9.28683 4.90807 8.96758C5.7167 8.64833 6.60266 8.57969 7.45082 8.77058C8.29897 8.96146 9.0701 9.40305 9.66399 10.038L14.214 7.55712C13.9561 6.53441 14.08 5.45274 14.5625 4.51487C15.0451 3.57699 15.8531 2.84731 16.8352 2.4626C17.8172 2.07789 18.9059 2.06457 19.8971 2.42513C20.8883 2.78569 21.7139 3.49537 22.2193 4.42116C22.7247 5.34694 22.875 6.42525 22.6422 7.45396C22.4094 8.48268 21.8093 9.39116 20.9546 10.0091C20.0998 10.6271 19.049 10.912 17.9992 10.8107C16.9494 10.7093 15.9725 10.2285 15.2518 9.45837L10.7018 11.9392C10.8768 12.634 10.8768 13.3613 10.7018 14.056L15.2518 16.5369C15.9729 15.7671 16.9499 15.2868 17.9998 15.186C19.0497 15.0851 20.1003 15.3706 20.9547 15.9889C21.8092 16.6072 22.4088 17.516 22.6411 18.5448C22.8735 19.5736 22.7227 20.6518 22.2169 21.5773C21.7112 22.5029 20.8852 23.2122 19.8939 23.5723C18.9026 23.9325 17.8139 23.9187 16.832 23.5336C15.8502 23.1485 15.0424 22.4185 14.5603 21.4804C14.0781 20.5424 13.9546 19.4607 14.2129 18.4381M6.49957 15.1643C7.07421 15.1643 7.62531 14.936 8.03164 14.5297C8.43797 14.1234 8.66624 13.5723 8.66624 12.9976C8.66624 12.423 8.43797 11.8719 8.03164 11.4656C7.62531 11.0592 7.07421 10.831 6.49957 10.831C5.92494 10.831 5.37384 11.0592 4.96751 11.4656C4.56118 11.8719 4.33291 12.423 4.33291 12.9976C4.33291 13.5723 4.56118 14.1234 4.96751 14.5297C5.37384 14.936 5.92494 15.1643 6.49957 15.1643ZM18.4162 8.66429C18.9909 8.66429 19.542 8.43601 19.9483 8.02968C20.3546 7.62336 20.5829 7.07226 20.5829 6.49762C20.5829 5.92298 20.3546 5.37188 19.9483 4.96555C19.542 4.55923 18.9909 4.33095 18.4162 4.33095C17.8416 4.33095 17.2905 4.55923 16.8842 4.96555C16.4778 5.37188 16.2496 5.92298 16.2496 6.49762C16.2496 7.07226 16.4778 7.62336 16.8842 8.02968C17.2905 8.43601 17.8416 8.66429 18.4162 8.66429ZM18.4162 21.6643C18.9909 21.6643 19.542 21.436 19.9483 21.0297C20.3546 20.6234 20.5829 20.0723 20.5829 19.4976C20.5829 18.923 20.3546 18.3719 19.9483 17.9656C19.542 17.5592 18.9909 17.331 18.4162 17.331C17.8416 17.331 17.2905 17.5592 16.8842 17.9656C16.4778 18.3719 16.2496 18.923 16.2496 19.4976C16.2496 20.0723 16.4778 20.6234 16.8842 21.0297C17.2905 21.436 17.8416 21.6643 18.4162 21.6643Z" fill="#222222"/>
</svg>
